<svg width="176" height="154" viewBox="0 0 176 154" fill="none" xmlns="http://www.w3.org/2000/svg">
<path d="M159.5 0H16.5C7.38719 0 0 7.38719 0 16.5V137.5C0 146.613 7.38719 154 16.5 154H159.5C168.613 154 176 146.613 176 137.5V16.5C176 7.38719 168.613 0 159.5 0ZM157.438 137.5H18.5625C18.0155 137.5 17.4909 137.283 17.1041 136.896C16.7173 136.509 16.5 135.985 16.5 135.438V18.5625C16.5 18.0155 16.7173 17.4909 17.1041 17.1041C17.4909 16.7173 18.0155 16.5 18.5625 16.5H157.438C157.985 16.5 158.509 16.7173 158.896 17.1041C159.283 17.4909 159.5 18.0155 159.5 18.5625V135.438C159.5 135.985 159.283 136.509 158.896 136.896C158.509 137.283 157.985 137.5 157.438 137.5ZM143 105.875V114.125C143 116.403 141.153 118.25 138.875 118.25H70.125C67.847 118.25 66 116.403 66 114.125V105.875C66 103.597 67.847 101.75 70.125 101.75H138.875C141.153 101.75 143 103.597 143 105.875ZM143 72.875V81.125C143 83.403 141.153 85.25 138.875 85.25H70.125C67.847 85.25 66 83.403 66 81.125V72.875C66 70.597 67.847 68.75 70.125 68.75H138.875C141.153 68.75 143 70.597 143 72.875ZM143 39.875V48.125C143 50.403 141.153 52.25 138.875 52.25H70.125C67.847 52.25 66 50.403 66 48.125V39.875C66 37.597 67.847 35.75 70.125 35.75H138.875C141.153 35.75 143 37.597 143 39.875ZM56.375 44C56.375 50.8344 50.8344 56.375 44 56.375C37.1656 56.375 31.625 50.8344 31.625 44C31.625 37.1656 37.1656 31.625 44 31.625C50.8344 31.625 56.375 37.1656 56.375 44ZM56.375 77C56.375 83.8344 50.8344 89.375 44 89.375C37.1656 89.375 31.625 83.8344 31.625 77C31.625 70.1656 37.1656 64.625 44 64.625C50.8344 64.625 56.375 70.1656 56.375 77ZM56.375 110C56.375 116.834 50.8344 122.375 44 122.375C37.1656 122.375 31.625 116.834 31.625 110C31.625 103.166 37.1656 97.625 44 97.625C50.8344 97.625 56.375 103.166 56.375 110Z" fill="#5A88FF"/>
</svg>
